<svg width="97" height="97" xmlns="http://www.w3.org/2000/svg" xmlns:xlink="http://www.w3.org/1999/xlink" xml:space="preserve" overflow="hidden"><g transform="translate(-904 -312)"><g><g><g><g><path d="M954 321.661 920 342.267 920 380.394 954 401 988 380.394 988 342.267ZM985.071 342.831 970.75 351.51 939.679 332.679 954 324ZM954 361.661 922.929 342.831 937.75 333.848 968.821 352.679ZM922 344.605 953 363.394 953 398.055 922 379.267ZM955 398.055 955 363.394 986 344.605 986 379.267Z" fill="#8ED973" fill-rule="nonzero" fill-opacity="1"/><path d="M959.971 365.115 959 365.7 959 374.365 962.029 372.548 967.029 369.548 968 368.963 968 360.3 964.971 362.117ZM966 367.831 961 370.831 961 366.831 966 363.831Z" fill="#8ED973" fill-rule="nonzero" fill-opacity="1"/></g></g></g></g></g></svg>
