<svg width="96" height="96" xmlns="http://www.w3.org/2000/svg" xmlns:xlink="http://www.w3.org/1999/xlink" xml:space="preserve" overflow="hidden"><g transform="translate(-592 -312)"><g><path d="M660 360C660 348.129 651.19 342.8 642.142 338 651.19 333.2 660 327.871 660 316L658 316C658.027 318.404 657.555 320.788 656.612 323L623.388 323C622.445 320.788 621.972 318.404 622 316L620 316C620 327.871 628.81 333.2 637.858 338 628.81 342.8 620 348.129 620 360 620 371.871 628.81 377.2 637.858 382 628.81 386.8 620 392.129 620 404L622 404C621.972 401.596 622.445 399.212 623.388 397L656.612 397C657.555 399.212 658.027 401.596 658 404L660 404C660 392.129 651.19 386.8 642.142 382 651.19 377.2 660 371.871 660 360ZM624.41 325 655.59 325C652.371 330.268 646.335 333.533 640 336.869 633.665 333.533 627.629 330.268 624.41 325ZM640 339.131C646.335 342.467 652.371 345.731 655.59 351L624.41 351C627.629 345.732 633.665 342.467 640 339.131ZM623.388 353 656.612 353C658.463 357.483 658.463 362.517 656.612 367L623.388 367C621.537 362.517 621.537 357.483 623.388 353ZM655.588 395 624.41 395C627.629 389.732 633.665 386.467 640 383.131 646.335 386.467 652.371 389.732 655.59 395ZM640 380.869C633.665 377.533 627.629 374.268 624.41 369L655.59 369C652.371 374.268 646.335 377.533 640 380.869Z" fill="#8ED973" fill-rule="nonzero" fill-opacity="1"/></g></g></svg>
