<svg width="96" height="98" xmlns="http://www.w3.org/2000/svg" xmlns:xlink="http://www.w3.org/1999/xlink" xml:space="preserve" overflow="hidden"><g transform="translate(-592 -198)"><g><g><g><g><path d="M681 266.018 681 218.006 599 218.006 599 266.018 681 266.018ZM601 220.006 679 220.006 679 264.018 601 264.018Z" stroke="#00B050" stroke-width="1.33333" stroke-linecap="butt" stroke-linejoin="miter" stroke-miterlimit="4" stroke-opacity="1" fill="#000000" fill-rule="nonzero" fill-opacity="1"/><path d="M686 271.02 686 213 594 213 594 271.02 628 271.02 628 279.02 605 279.02 605 281.02 675 281.02 675 279.02 652 279.02 652 271.02ZM596 215 684 215 684 269.02 596 269.02ZM650 279.023 630 279.023 630 271.023 650 271.023Z" stroke="#00B050" stroke-width="1.33333" stroke-linecap="butt" stroke-linejoin="miter" stroke-miterlimit="4" stroke-opacity="1" fill="#000000" fill-rule="nonzero" fill-opacity="1"/></g></g></g></g></g></svg>
