<svg width="96" height="98" xmlns="http://www.w3.org/2000/svg" xmlns:xlink="http://www.w3.org/1999/xlink" xml:space="preserve" overflow="hidden"><g transform="translate(-268 -158)"><g><g><g><g><path d="M352 236 324 236 324 232 317 232 317 223 344 223C346.209 223 348 221.209 348 219L348 209C347.996 207.847 347.492 206.752 346.618 206 347.492 205.248 347.996 204.153 348 203L348 193C347.996 191.847 347.492 190.752 346.618 190 347.492 189.248 347.996 188.153 348 187L348 177C348 174.791 346.209 173 344 173L288 173C285.791 173 284 174.791 284 177L284 187C284.004 188.153 284.508 189.248 285.382 190 284.508 190.752 284.004 191.847 284 193L284 203C284.004 204.153 284.508 205.248 285.382 206 284.508 206.752 284.004 207.847 284 209L284 219C284 221.209 285.791 223 288 223L315 223 315 232 308 232 308 236 280 236 280 238 308 238 308 242 324 242 324 238 352 238ZM286 187 286 177C286 175.895 286.895 175 288 175L344 175C345.105 175 346 175.895 346 177L346 187C346 188.105 345.105 189 344 189L288 189C286.895 189 286 188.105 286 187ZM286 203 286 193C286 191.895 286.895 191 288 191L344 191C345.105 191 346 191.895 346 193L346 203C346 204.105 345.105 205 344 205L288 205C286.895 205 286 204.105 286 203ZM286 219 286 209C286 207.895 286.895 207 288 207L344 207C345.105 207 346 207.895 346 209L346 219C346 220.105 345.105 221 344 221L288 221C286.895 221 286 220.105 286 219ZM322 240 310 240 310 234 322 234Z" fill="#8ED973" fill-rule="nonzero" fill-opacity="1"/><path d="M296 182C296 183.105 295.105 184 294 184 292.895 184 292 183.105 292 182 292 180.895 292.895 180 294 180 295.105 180 296 180.895 296 182Z" fill="#8ED973" fill-rule="nonzero" fill-opacity="1"/><path d="M306 182C306 183.105 305.105 184 304 184 302.895 184 302 183.105 302 182 302 180.895 302.895 180 304 180 305.105 180 306 180.895 306 182Z" fill="#8ED973" fill-rule="nonzero" fill-opacity="1"/><path d="M316 182C316 183.105 315.105 184 314 184 312.895 184 312 183.105 312 182 312 180.895 312.895 180 314 180 315.105 180 316 180.895 316 182Z" fill="#8ED973" fill-rule="nonzero" fill-opacity="1"/><path d="M296 198C296 199.105 295.105 200 294 200 292.895 200 292 199.105 292 198 292 196.895 292.895 196 294 196 295.105 196 296 196.895 296 198Z" fill="#8ED973" fill-rule="nonzero" fill-opacity="1"/><path d="M306 198C306 199.105 305.105 200 304 200 302.895 200 302 199.105 302 198 302 196.895 302.895 196 304 196 305.105 196 306 196.895 306 198Z" fill="#8ED973" fill-rule="nonzero" fill-opacity="1"/><path d="M316 198C316 199.105 315.105 200 314 200 312.895 200 312 199.105 312 198 312 196.895 312.895 196 314 196 315.105 196 316 196.895 316 198Z" fill="#8ED973" fill-rule="nonzero" fill-opacity="1"/><path d="M296 214C296 215.105 295.105 216 294 216 292.895 216 292 215.105 292 214 292 212.895 292.895 212 294 212 295.105 212 296 212.895 296 214Z" fill="#8ED973" fill-rule="nonzero" fill-opacity="1"/><path d="M306 214C306 215.105 305.105 216 304 216 302.895 216 302 215.105 302 214 302 212.895 302.895 212 304 212 305.105 212 306 212.895 306 214Z" fill="#8ED973" fill-rule="nonzero" fill-opacity="1"/><path d="M316 214C316 215.105 315.105 216 314 216 312.895 216 312 215.105 312 214 312 212.895 312.895 212 314 212 315.105 212 316 212.895 316 214Z" fill="#8ED973" fill-rule="nonzero" fill-opacity="1"/></g></g></g></g></g></svg>
