<svg width="16" height="16" viewBox="0 0 16 16" fill="none" xmlns="http://www.w3.org/2000/svg">
<path d="M8.093 0.815472L8.61079 2.7478L9.57671 2.48897L9.05892 0.556641L8.093 0.815472Z" fill="#D8D8D8"/>
<path d="M13.5355 1.7573L12.1213 3.17152L12.8284 3.87863L14.2426 2.46441L13.5355 1.7573Z" fill="#D8D8D8"/>
<path d="M4.55662 5.05905L6.48894 5.57685L6.74778 4.61093L4.81545 4.09313L4.55662 5.05905Z" fill="#D8D8D8"/>
<path d="M15.4432 6.94093L13.5109 6.42316L13.2521 7.38909L15.1844 7.90686L15.4432 6.94093Z" fill="#D8D8D8"/>
<path d="M11.9067 11.1844L11.3889 9.25212L10.423 9.51094L10.9408 11.4433L11.9067 11.1844Z" fill="#D8D8D8"/>
<path d="M8.64645 8.85356L3.5 14L2 12.5L7.14645 7.35356L8.64645 8.85356Z" fill="#D8D8D8"/>
<path d="M9.35356 8.14645L11.5 6.00001L10 4.50001L7.85356 6.64645L9.35356 8.14645Z" fill="#D8D8D8"/>
</svg>
