<svg width="26" height="26" viewBox="0 0 26 26" fill="none" xmlns="http://www.w3.org/2000/svg">
<path fill-rule="evenodd" clip-rule="evenodd" d="M1.70718 0.292847L25.7072 24.2928L24.293 25.7071L20.749 22.1631C18.6583 23.9328 15.9538 25 13.0002 25C6.37274 25 1.00015 19.6274 1.00015 13C1.00015 10.0463 2.0673 7.34186 3.83708 5.25118L0.292969 1.70706L1.70718 0.292847ZM5.25719 6.67129C3.84651 8.39515 3.00015 10.5987 3.00015 13C3.00015 18.5228 7.4773 23 13.0002 23C15.4014 23 17.605 22.1536 19.3289 20.743L5.25719 6.67129Z" fill="#D8D8D8"/>
<path d="M25.0002 13C25.0002 14.8526 24.5803 16.6072 23.8307 18.1737L22.3114 16.6544C22.756 15.5224 23.0002 14.2897 23.0002 13C23.0002 7.47715 18.523 3 13.0002 3C11.7104 3 10.4777 3.24416 9.34573 3.68878L7.82645 2.1695C9.393 1.41982 11.1476 1 13.0002 1C19.6276 1 25.0002 6.37258 25.0002 13Z" fill="#D8D8D8"/>
</svg>
