<svg width="84" height="16" viewBox="0 0 84 16" fill="none" xmlns="http://www.w3.org/2000/svg">
<g clip-path="url(#clip0_0_10)">
<mask id="mask0_0_10" style="mask-type:luminance" maskUnits="userSpaceOnUse" x="0" y="0" width="84" height="16">
<path fill-rule="evenodd" clip-rule="evenodd" d="M83.9951 16H0V0H41.9975H83.9951V16Z" fill="white"/>
</mask>
<g mask="url(#mask0_0_10)">
<path fill-rule="evenodd" clip-rule="evenodd" d="M51.3213 3.02438L51.3223 13.5296H54.2792V3.02456L51.3213 3.02438ZM28.06 3.01013V13.5296H31.0432V5.36397L33.3705 5.37172C34.136 5.37172 34.6652 5.5558 35.0341 5.95078C35.5017 6.45094 35.6927 7.25693 35.6927 8.73238V13.5296H38.5831V7.71755C38.5831 3.56951 35.9479 3.01013 33.3698 3.01013H28.06ZM56.0826 3.02473V13.5296H60.8787C63.4341 13.5296 64.268 13.1033 65.17 12.1473C65.8076 11.476 66.2196 10.0026 66.2196 8.39262C66.2196 6.91602 65.8709 5.59874 65.2624 4.77841C64.1671 3.3116 62.5888 3.02473 60.2326 3.02473H56.0826ZM59.0155 5.31214H60.2869C62.1313 5.31214 63.3243 6.14324 63.3243 8.29955C63.3243 10.4563 62.1313 11.2874 60.2869 11.2874H59.0155V5.31214ZM47.058 3.02473L44.5901 11.3504L42.2254 3.02527L39.0335 3.02473L42.4105 13.5296H46.6724L50.0761 3.02473H47.058ZM67.5953 13.5296H70.5527V3.02527L67.5946 3.02473L67.5953 13.5296ZM75.8846 3.02856L71.7555 13.5259H74.6714L75.3246 11.6706H80.211L80.8294 13.5259H83.9951L79.8345 3.02767L75.8846 3.02856ZM77.8041 4.9437L79.5952 9.86157H75.9563L77.8041 4.9437Z" fill="white"/>
<path fill-rule="evenodd" clip-rule="evenodd" d="M8.9891 4.77581V3.33011C9.12899 3.32005 9.2703 3.31257 9.41428 3.30811C13.3552 3.18378 15.9407 6.70565 15.9407 6.70565C15.9407 6.70565 13.1482 10.5972 10.1542 10.5972C9.72299 10.5972 9.33705 10.5275 8.9891 10.4103V6.0263C10.5234 6.21226 10.8318 6.89223 11.7544 8.43483L13.8059 6.69941C13.8059 6.69941 12.3085 4.72879 9.78406 4.72879C9.50934 4.72879 9.24687 4.74821 8.9891 4.77581ZM8.9891 0V2.15952C9.13059 2.1483 9.27217 2.1393 9.41428 2.13414C14.8948 1.94889 18.4653 6.64385 18.4653 6.64385C18.4653 6.64385 14.3641 11.6475 10.0916 11.6475C9.70018 11.6475 9.33359 11.6112 8.9891 11.55V12.885C9.28371 12.9225 9.58878 12.9446 9.90726 12.9446C13.8834 12.9446 16.7586 10.9075 19.543 8.49611C20.0044 8.86704 21.8944 9.76912 22.2831 10.1646C19.6355 12.3882 13.466 14.1804 9.96833 14.1804C9.6313 14.1804 9.30714 14.1599 8.9891 14.1293V16.0053H24.1013V0H8.9891ZM8.98918 10.4104V11.55C5.31175 10.8923 4.29107 7.05673 4.29107 7.05673C4.29107 7.05673 6.05673 5.09385 8.98918 4.77582V6.02631C8.98696 6.02631 8.98545 6.02568 8.98349 6.02568C7.44471 5.84026 6.24233 7.28285 6.24233 7.28285C6.24233 7.28285 6.91595 9.71141 8.98918 10.4104ZM2.45769 6.89054C2.45769 6.89054 4.63725 3.66374 8.98919 3.33012V2.15952C4.16894 2.54764 -0.005294 6.64385 -0.005294 6.64385C-0.005294 6.64385 2.35881 13.5015 8.98919 14.1293V12.885C4.12367 12.2707 2.45769 6.89054 2.45769 6.89054Z" fill="#76B900"/>
</g>
</g>
<defs>
<clipPath id="clip0_0_10">
<rect width="83.9951" height="16" fill="white"/>
</clipPath>
</defs>
</svg>
